<?xml version="1.0" encoding="utf-8"?>
<?xml-stylesheet type="text/xsl" href="rss1.xsl"?>
<rss version="2.0" xmlns:atom="http://www.w3.org/2005/Atom" xmlns:content="http://purl.org/rss/1.0/modules/content/" xmlns:dc="http://purl.org/dc/elements/1.1/" xmlns:media="http://search.yahoo.com/mrss/">
<channel>
 <title>Getty</title>
 <link>http://www.gettyimg.com/</link>
 <atom:link href="http://www.gettyimg.com/" rel="self" type="application/rss+xml" />

 
                <item>
                <title><![CDATA[【Apple Music】WEB-RiP - Olivia Rodrigo - obsessed (Performance Version) 'A.M WEB-DL.4K.AAC2.0-fstambuk']]></title>
                <link><![CDATA[https://sharemania.us/threads/olivia-rodrigo-obsessed-performance-version-a-m-web-dl-4k-aac2-0-fstambuk.241292/]]></link>
                <description><![CDATA[<article>
<blockquote class="messageText SelectQuoteContainer ugc baseHtml">
<div style="text-align: center"><img src="https://i.ibb.co/2N047BD/20240402170455.gif" class="bbCodeImage LbImage" alt="[​IMG]" data-url="https://i.ibb.co/2N047BD/20240402170455.gif" style=""><br>
​</div>
<div class="ToggleTriggerAnchor bbCodeSpoilerContainer">
<button type="button" class="button bbCodeSpoilerButton ToggleTrigger Tooltip JsOnly" data-target="> .SpoilerTarget"><span>Spoiler: <span class="SpoilerTitle">Apple Music</span></span></button>
<div class="SpoilerTarget bbCodeSpoilerText">
<div class="bbCodeBlock bbCodeCode">
<div class="type">Code:</div>
<pre>Complete name                            : Olivia Rodrigo - obsessed (Performance Version) 'A.M WEB-DL.4K.AAC2.0-fstambuk'.mp4
Format                                   : Matroska
Format version                           : Version 4
File size                                : 262 MiB
Duration                                 : 3 min 0 s
Overall bit rate                         : 12.2 Mb/s
Frame rate                               : 24.000 FPS
Writing application                      : mkvmerge v71.1.0 ('Fortitude') 64-bit
Writing library                          : libebml v1.4.4 + libmatroska v1.7.1
FileExtension_Invalid                    : mkv mk3d mka mks

Video
ID                                       : 1
Format                                   : HEVC
Format/Info                              : High Efficiency Video Coding
Format profile                           : Main 10@L5@High
Codec ID                                 : V_MPEGH/ISO/HEVC
Duration                                 : 3 min 0 s
Bit rate                                 : 11.9 Mb/s
Width                                    : 2 908 pixels
Height                                   : 2 160 pixels
Display aspect ratio                     : 4:3
Frame rate mode                          : Constant
Frame rate                               : 24.000 FPS
Color space                              : YUV
Chroma subsampling                       : 4:2:0
Bit depth                                : 10 bits
Bits/(Pixel*Frame)                       : 0.079
Stream size                              : 256 MiB (98%)
Default                                  : Yes
Forced                                   : No
Color range                              : Limited
Color primaries                          : BT.709
Transfer characteristics                 : BT.709
Matrix coefficients                      : BT.709

Audio
ID                                       : 2
Format                                   : AAC LC
Format/Info                              : Advanced Audio Codec Low Complexity
Codec ID                                 : 2 / A_AAC-2
Duration                                 : 3 min 0 s
Bit rate                                 : 253 kb/s
Channel(s)                               : 2 channels
Channel layout                           : L R
Sampling rate                            : 48.0 kHz
Frame rate                               : 46.875 FPS (1024 SPF)
Compression mode                         : Lossy
Stream size                              : 5.46 MiB (2%)
Default                                  : Yes
Forced                                   : No

</pre>
</div><div style="text-align: center">​</div></div>
</div><div style="text-align: center">
<div class="bbCodeBlock bbCodeVfcHH HiddenContent">
<div class="attribution type">Hidden Content:</div>
<blockquote>You must reply before you can see the hidden data contained here.</blockquote>
</div></div>
<div class="messageTextEndMarker">&nbsp;</div>
</blockquote>
</article>]]></description>
                <author><![CDATA[fstambuk]]></author>
                </item>

                
                <item>
                <title><![CDATA[【Unreleased/Unofficial (lossy)】MP3 - SOPHIE - TRANSNATION (2021 SCRAPPED ALBUM)]]></title>
                <link><![CDATA[https://sharemania.us/threads/sophie-transnation-2021-scrapped-album.241291/]]></link>
                <description><![CDATA[<article>
<blockquote class="messageText SelectQuoteContainer ugc baseHtml">
<div style="text-align: center"><img src="https://s2.krakenfiles.com/uploads/02-04-2024/d28E9VNszR/image.png" class="bbCodeImage LbImage" alt="[​IMG]" data-url="https://s2.krakenfiles.com/uploads/02-04-2024/d28E9VNszR/image.png" style=""><br>
<br>
<b><span style="font-size: 22px">TRANSNATION (2020 SCRAPPED ALBUM)</span></b><br>
<span style="font-size: 15px">Concept of SOPHIE's scrapped album TRANSNATION based around a tracklist obtained from a 2020 email leak. Tracklist in said email was very rough and loosely concepted, but provided a vision to fulfill nonetheless.<br>
<br>
<span style="text-decoration: underline">ALTERNATIVE COVER INCLUDED - EVERYONE IS ENCOURAGED TO SHARE THEIR OWN</span><br>
</span><br>
<span style="text-decoration: underline"><span style="font-size: 22px">Tracklist</span></span><br>
<span style="font-size: 15px"><i>1. Take Me To Dubai</i><br>
<i>2. New York's Buring Down</i><br>
<i>3. Burn Rubber</i><br>
<i>4. Sunscreen</i><br>
<i>5. Flybitch</i><br>
<i>6. Don't Make Me Wait</i><br>
<i>7. Lock It Up</i><br>
<i>8. In The Rain</i><br>
<i>9. Plunging Asymptote</i><br>
<i>10. Rawwww</i><br>
<i>11. Reason Why</i><br>
<i>12. Europe for the Summer</i><br>
<i>13. <b><span style="text-decoration: underline">WGFU?*</span></b></i><br>
<i>14. Do U Wanna Be Alive (Remake)</i><br>
<i>15. Love Me Off Earth</i><br>
<i>16. Exhilarate</i><br>
<i>17. My Forever</i><br>
<i>18. Transnation</i><br>
</span><br>
<span style="font-size: 18px"><span style="text-decoration: underline">BONUS</span></span><br>
<span style="font-size: 15px"><i>19.<span style="text-decoration: underline"><b>Taxi*</b></span></i><br>
<i>20. Do U Wanna Be Alive (Version II)</i><br>
<i>21. Transnation (Demo)</i><br>
<br>
<i>*</i>Tracklist has both songs filling the same spot, suggesting that spot was up for debate, so both were included. Use at your own discretion.<br>
<br>
File names left as found, only edit is TMTD was given a volume bump<br>
<br>
Please DM if link is dead<br>
<br>
<div class="bbCodeBlock bbCodeVfcHH HiddenContent">
<div class="attribution type">Hidden Content:</div>
<blockquote>You must either reply or click 'Like' to see the hidden information contained here.</blockquote>
</div></span>​</div>
<div class="messageTextEndMarker">&nbsp;</div>
</blockquote>
</article>]]></description>
                <author><![CDATA[CallMeECig]]></author>
                </item>

                </channel></rss>